<svg width="328" height="328" viewBox="0 0 328 328" fill="none" xmlns="http://www.w3.org/2000/svg">
<g clip-path="url(#clip0)">
<path d="M130.342 234.956C130.342 234.954 130.335 234.953 130.335 234.951L56.274 163.841L130.333 92.7229C134.333 88.8849 136.533 83.7609 136.533 78.2969C136.533 72.8319 134.333 67.7069 130.333 63.8669C122.266 56.1199 109.14 56.1219 101.086 63.8689L2.099 158.917C0.759 160.204 0 161.982 0 163.841C0 165.7 0.76 167.478 2.099 168.765L101.081 263.814C105.114 267.688 110.408 269.625 115.707 269.625C121.006 269.625 126.3 267.688 130.335 263.814C134.335 259.977 136.535 254.856 136.535 249.393C136.535 243.926 134.335 238.798 130.342 234.956ZM120.88 253.966C118.086 256.654 113.347 256.663 110.539 253.968L16.679 163.841L110.546 73.7099C113.34 71.0149 118.072 71.0269 120.88 73.7119C122.167 74.9529 122.88 76.5789 122.88 78.2939C122.88 80.0079 122.167 81.6319 120.88 82.8729L41.694 158.917C40.354 160.204 39.595 161.982 39.595 163.841C39.595 165.7 40.355 167.478 41.694 168.766L120.873 244.796C122.167 246.04 122.88 247.67 122.88 249.387C122.88 251.101 122.167 252.727 120.88 253.966Z" fill="black"/>
<g opacity="0.4">
<path d="M225.908 234.951L151.847 163.841L225.908 92.7238C229.908 88.8858 232.108 83.7618 232.108 78.2978C232.108 72.8328 229.908 67.7078 225.908 63.8678C217.841 56.1248 204.721 56.1228 196.654 63.8698L97.6742 158.919C96.3342 160.206 95.5752 161.984 95.5752 163.843C95.5752 165.702 96.3342 167.48 97.6742 168.767L196.654 263.818C200.687 267.689 205.981 269.624 211.28 269.624C216.579 269.624 221.873 267.689 225.908 263.815C229.908 259.978 232.108 254.857 232.108 249.394C232.108 243.928 229.908 238.799 225.915 234.957C225.915 234.954 225.908 234.952 225.908 234.951ZM216.451 253.966C213.652 256.659 208.906 256.657 206.105 253.968L112.252 163.841L206.103 73.7138C208.902 71.0208 213.648 71.0228 216.449 73.7118C217.736 74.9528 218.449 76.5788 218.449 78.2938C218.449 80.0078 217.736 81.6318 216.449 82.8728L137.263 158.917C135.923 160.204 135.164 161.982 135.164 163.841C135.164 165.7 135.923 167.478 137.263 168.766L216.444 244.796C217.738 246.04 218.451 247.67 218.451 249.387C218.452 251.101 217.738 252.727 216.451 253.966Z" fill="black"/>
</g>
<g opacity="0.1">
<path d="M321.488 234.956C321.488 234.954 321.481 234.953 321.481 234.951L247.42 163.841L321.481 92.7239C325.481 88.8859 327.681 83.7619 327.681 78.2979C327.681 72.8329 325.481 67.7079 321.481 63.8679C313.42 56.1269 300.288 56.1349 292.227 63.8699L193.247 158.919C191.907 160.206 191.148 161.984 191.148 163.843C191.148 165.702 191.907 167.48 193.247 168.767L292.227 263.82C296.26 267.687 301.559 269.623 306.853 269.623C312.152 269.623 317.453 267.686 321.481 263.815C325.481 259.978 327.681 254.857 327.681 249.394C327.682 243.926 325.482 238.798 321.488 234.956ZM312.025 253.966C309.173 256.704 304.533 256.702 301.679 253.968L207.826 163.841L301.677 73.7149C304.529 70.9779 309.169 70.9779 312.023 73.7119C313.31 74.9529 314.023 76.5789 314.023 78.2939C314.023 80.0079 313.31 81.6319 312.023 82.8729L232.837 158.917C231.497 160.204 230.738 161.982 230.738 163.841C230.738 165.7 231.497 167.478 232.837 168.766L312.018 244.796C313.312 246.04 314.025 247.67 314.025 249.387C314.025 251.101 313.312 252.727 312.025 253.966Z" fill="black"/>
</g>
</g>
<defs>
<clipPath id="clip0">
<rect width="327.682" height="327.682" fill="white"/>
</clipPath>
</defs>
</svg>
